# xmcd
#
# Track frame offsets: 
#        150
#        16512
#        33872
#        55247
#        71337
#        86072
#        100637
#        121857
#        137650
#        152645
#        168117
#        184752
#
# Disc length: 2660 seconds
#
# Revision: 2
# Processed by: cddbd v1.5PL3 Copyright (c) Steve Scherf et al.
# Submitted via: ExactAudioCopy v0.95a3
#
DISCID=850a620c
DTITLE=MAIJA VILKKUMAA - PITKÄ IHANA LEIKKI
DYEAR=1900
DGENRE=
TTITLE0=ÄRSYTTÄVÄ TAPA
TTITLE1=AURINGONPIMENNYS
TTITLE2=SATUMAA-TANGO
TTITLE3=HIUKSISSA HIEKKAA
TTITLE4=YSTÄVÄ
TTITLE5=EI IKINÄ SUNO
TTITLE6=JÄÄSSÄ
TTITLE7=TIMANTTI
TTITLE8=SALAA
TTITLE9=TYYNY
TTITLE10=VÄHÄN ENNEN
TTITLE11=TÄHTI
EXTD=
EXTT0=
EXTT1=
EXTT2=
EXTT3=
EXTT4=
EXTT5=
EXTT6=
EXTT7=
EXTT8=
EXTT9=
EXTT10=
EXTT11=
PLAYORDER=
